<?xml version="1.0" encoding="UTF-8"?>
<svg xmlns="http://www.w3.org/2000/svg" width="39.126129150390625" height="21.341552734375" viewBox="1100.179687499998 402.1913658884862 39.126129150390625 21.341552734375" preserveAspectRatio="none">
  <g>
    <defs>
      <path id="s-Path_34-2b4d2" d="M1110.8504492370653 423.53288936262084 C1107.8863487545466 423.53288936262084 1105.3668633444056 422.4954541937393 1103.2919930066425 420.42058385597625 C1101.2171226688795 418.3457135182132 1100.179687499998 415.8262281080722 1100.179687499998 412.8621276255535 C1100.179687499998 409.8980271430348 1101.2171226688795 407.37854173289395 1103.2919930066425 405.303671395131 C1105.3668633444056 403.22880105736783 1107.8863487545466 402.1913658884862 1110.8504492370653 402.1913658884862 L1128.6350521321774 402.1913658884862 C1131.5991526146963 402.1913658884862 1134.118638024837 403.22880105736783 1136.1935083626001 405.303671395131 C1138.2683787003632 407.37854173289395 1139.305813869245 409.8980271430348 1139.305813869245 412.8621276255535 C1139.305813869245 415.8262281080722 1138.2683787003632 418.3457135182132 1136.1935083626001 420.42058385597625 C1134.118638024837 422.4954541937393 1131.5991526146963 423.53288936262084 1128.6350521321774 423.53288936262084 L1110.8504492370653 423.53288936262084 Z M1110.8504492370653 419.97596878359843 L1128.6350521321774 419.97596878359843 C1130.5913584506397 419.97596878359843 1132.266075223263 419.2794051702066 1133.6592024500467 417.8862779434228 C1135.0523296768306 416.49315071663887 1135.7488932902224 414.81843394401596 1135.7488932902224 412.8621276255535 C1135.7488932902224 410.9058213070913 1135.0523296768306 409.23110453446816 1133.6592024500467 407.83797730768447 C1132.266075223263 406.44485008090066 1130.5913584506397 405.7482864675087 1128.6350521321774 405.7482864675087 L1110.8504492370653 405.7482864675087 C1108.894142918603 405.7482864675087 1107.21942614598 406.44485008090066 1105.826298919196 407.83797730768447 C1104.4331716924123 409.23110453446816 1103.7366080790205 410.9058213070913 1103.7366080790205 412.8621276255535 C1103.7366080790205 414.81843394401596 1104.4331716924123 416.49315071663887 1105.826298919196 417.8862779434228 C1107.21942614598 419.2794051702066 1108.894142918603 419.97596878359843 1110.8504492370653 419.97596878359843 Z M1132.414280247389 416.641355740765 C1133.4517154162704 415.60392057188335 1133.9704330007112 414.34417786681297 1133.9704330007112 412.8621276255535 C1133.9704330007112 411.3800773842943 1133.4517154162704 410.1203346792239 1132.414280247389 409.0828995103424 C1131.3768450785074 408.04546434146073 1130.1171023734369 407.52674675701996 1128.6350521321774 407.52674675701996 C1127.1530018909182 407.52674675701996 1125.8932591858477 408.04546434146073 1124.8558240169662 409.0828995103424 C1123.8183888480846 410.1203346792239 1123.2996712636439 411.3800773842943 1123.2996712636439 412.8621276255535 C1123.2996712636439 414.34417786681297 1123.8183888480846 415.60392057188335 1124.8558240169662 416.641355740765 C1125.8932591858477 417.6787909096464 1127.1530018909182 418.1975084940872 1128.6350521321774 418.1975084940872 C1130.1171023734369 418.1975084940872 1131.3768450785074 417.6787909096464 1132.414280247389 416.641355740765 Z M1119.7427506846213 412.8621276255535 Z "></path>
    </defs>
    <g style="mix-blend-mode:normal">
      <use xmlns:xlink="http://www.w3.org/1999/xlink" xlink:href="#s-Path_34-2b4d2" fill="#B0DD74" fill-opacity="1.0"></use>
    </g>
  </g>
</svg>
