<?xml version="1.0" encoding="UTF-8"?>
<svg xmlns="http://www.w3.org/2000/svg" width="29.085189819335938" height="29.085205078125" viewBox="780.0 332.631188738716 29.085189819335938 29.085205078125" preserveAspectRatio="none">
  <g>
    <defs>
      <path id="s-Path_50-2b4d2" d="M789.4072390376912 345.0378373246566 C787.9832769289263 343.61387521589177 787.271295874544 341.9020909787595 787.271295874544 339.90248461325996 C787.271295874544 337.90287824776044 787.9832769289263 336.19109401062815 789.4072390376912 334.7671319018633 C790.8312011464561 333.34316979309847 792.5429853835883 332.631188738716 794.5425917490879 332.631188738716 C796.5421981145874 332.631188738716 798.2539823517197 333.34316979309847 799.6779444604846 334.7671319018633 C801.1019065692494 336.19109401062815 801.8138876236318 337.90287824776044 801.8138876236318 339.90248461325996 C801.8138876236318 341.9020909787595 801.1019065692494 343.61387521589177 799.6779444604846 345.0378373246566 C798.2539823517197 346.46179943342145 796.5421981145874 347.1737804878038 794.5425917490879 347.1737804878038 C792.5429853835883 347.1737804878038 790.8312011464561 346.46179943342145 789.4072390376912 345.0378373246566 Z M780.0 361.71637223689174 L780.0 356.626465124711 C780.0 355.59636487581724 780.2650993287594 354.64958155881925 780.7952979862782 353.78611517371723 C781.3254966437971 352.9226487886151 782.0299034316436 352.26368759998456 782.9085183498175 351.8092316078256 C784.7869364507415 350.87002255736365 786.6956516178093 350.1656157695172 788.634663851021 349.6960112442863 C790.5736760842326 349.2264067190554 792.5429853835883 348.99160445643986 794.5425917490879 348.99160445643986 C796.5421981145874 348.99160445643986 798.5115074139431 349.2264067190554 800.4505196471548 349.6960112442863 C802.3895318803666 350.1656157695172 804.2982470474343 350.87002255736365 806.1766651483582 351.8092316078256 C807.0552800665323 352.26368759998456 807.7596868543787 352.9226487886151 808.2898855118975 353.78611517371723 C808.8200841694163 354.64958155881925 809.0851834981758 355.59636487581724 809.0851834981758 356.626465124711 L809.0851834981758 361.71637223689174 L780.0 361.71637223689174 Z M783.635647937272 358.08072429961976 L805.4495355609038 358.08072429961976 L805.4495355609038 356.626465124711 C805.4495355609038 356.29319739712776 805.366218629008 355.99022673568834 805.1995847652163 355.71755314039297 C805.0329509014247 355.4448795450976 804.8132971718812 355.2328000820901 804.5406235765859 355.0813147513703 C802.9045820048134 354.2632939654842 801.2533918999691 353.64977837606955 799.5870532620527 353.2407679831265 C797.9207146241364 352.8317575901833 796.2392274531481 352.62725239371184 794.5425917490879 352.62725239371184 C792.8459560450276 352.62725239371184 791.1644688740394 352.8317575901833 789.498130236123 353.2407679831265 C787.8317915982067 353.64977837606955 786.1806014933624 354.2632939654842 784.54455992159 355.0813147513703 C784.2718863262945 355.2328000820901 784.0522325967511 355.4448795450976 783.8855987329594 355.71755314039297 C783.7189648691678 355.99022673568834 783.635647937272 356.29319739712776 783.635647937272 356.626465124711 L783.635647937272 358.08072429961976 Z M797.1102681047862 342.4701609689582 C797.8222491591687 341.75817991457586 798.1782396863598 340.9022877960098 798.1782396863598 339.90248461325996 C798.1782396863598 338.90268143051014 797.8222491591687 338.04678931194405 797.1102681047862 337.3348082575616 C796.3982870504037 336.6228272031792 795.5423949318376 336.266836675988 794.5425917490879 336.266836675988 C793.5427885663381 336.266836675988 792.686896447772 336.6228272031792 791.9749153933896 337.3348082575616 C791.2629343390072 338.04678931194405 790.906943811816 338.90268143051014 790.906943811816 339.90248461325996 C790.906943811816 340.9022877960098 791.2629343390072 341.75817991457586 791.9749153933896 342.4701609689582 C792.686896447772 343.1821420233407 793.5427885663381 343.5381325505318 794.5425917490879 343.5381325505318 C795.5423949318376 343.5381325505318 796.3982870504037 343.1821420233407 797.1102681047862 342.4701609689582 Z M794.5425917490879 339.90248461325996 Z M794.5425917490879 358.08072429961976 Z "></path>
    </defs>
    <g style="mix-blend-mode:normal">
      <use xmlns:xlink="http://www.w3.org/1999/xlink" xlink:href="#s-Path_50-2b4d2" fill="#B0DD74" fill-opacity="1.0"></use>
    </g>
  </g>
</svg>
