<?xml version="1.0" encoding="UTF-8"?>
<svg xmlns="http://www.w3.org/2000/svg" width="23.699996948242188" height="21.54547119140625" viewBox="865.0177621249496 455.5180155210642 23.699996948242188 21.54547119140625" preserveAspectRatio="none">
  <g>
    <defs>
      <path id="s-Path_79-f51a5" d="M875.7904893976768 477.06347006651845 C874.3002621249495 477.06347006651845 872.899807579495 476.78068597560946 871.5891257613132 476.21511779379125 C870.2784439431314 475.64954961197316 869.1383303067678 474.88199279379137 868.1687848522223 473.9124473392459 C867.1992393976768 472.9429018847004 866.431682579495 471.8027882483367 865.8661143976769 470.4921064301549 C865.3005462158587 469.18142461197306 865.0177621249496 467.78097006651853 865.0177621249496 466.2907427937912 C865.0177621249496 464.80051552106397 865.3005462158587 463.40006097560945 865.8661143976769 462.08937915742763 C866.431682579495 460.7786973392458 867.1992393976768 459.6385837028821 868.1687848522223 458.6690382483366 C869.1383303067678 457.69949279379136 870.2784439431314 456.93193597560935 871.5891257613132 456.36636779379114 C872.899807579495 455.80079961197316 874.3002621249495 455.51801552106394 875.7904893976768 455.51801552106394 C876.9575348522222 455.51801552106394 878.0617393976768 455.6885837028823 879.1031030340405 456.0297200665186 C880.1444666704041 456.37085643015496 881.1050348522222 456.84665188470035 881.9848075794949 457.4571064301549 L880.4227621249495 459.04608370288213 C879.7404893976768 458.6151746119731 879.0133303067677 458.27852688470034 878.2412848522222 458.0361405210639 C877.4692393976768 457.79375415742766 876.652307579495 457.6725609756094 875.7904893976768 457.6725609756094 C873.4025348522223 457.6725609756094 871.369182579495 458.5119359756095 869.6904325794951 460.1906859756094 C868.0116825794951 461.8694359756096 867.172307579495 463.90278824833683 867.172307579495 466.2907427937912 C867.172307579495 468.6786973392458 868.0116825794951 470.71204961197304 869.6904325794951 472.3907996119731 C871.369182579495 474.0695496119731 873.4025348522223 474.90892461197313 875.7904893976768 474.90892461197313 C876.3650348522223 474.90892461197313 876.9216257613132 474.8550609756094 877.4602621249495 474.7473337028822 C877.9988984885858 474.6396064301549 878.5195803067677 474.4869927937913 879.022307579495 474.28949279379117 L880.6382166704041 475.93233370288215 C879.9020803067676 476.29142461197307 879.1300348522223 476.56972006651847 878.3220803067677 476.76722006651846 C877.5141257613132 476.96472006651857 876.6702621249495 477.06347006651845 875.7904893976768 477.06347006651845 Z M883.3313984885858 474.90892461197313 L883.3313984885858 471.67710643015494 L880.0995803067676 471.67710643015494 L880.0995803067676 469.5225609756094 L883.3313984885858 469.5225609756094 L883.3313984885858 466.2907427937912 L885.4859439431312 466.2907427937912 L885.4859439431312 469.5225609756094 L888.7177621249494 469.5225609756094 L888.7177621249494 471.67710643015494 L885.4859439431312 471.67710643015494 L885.4859439431312 474.90892461197313 L883.3313984885858 474.90892461197313 Z M874.282307579495 471.2461973392459 L869.703898488586 466.6677882483367 L871.2120803067678 465.1596064301549 L874.282307579495 468.22983370288216 L885.0550348522222 457.43017461197314 L886.563216670404 458.93835643015484 L874.282307579495 471.2461973392459 Z "></path>
    </defs>
    <g style="mix-blend-mode:normal">
      <use xmlns:xlink="http://www.w3.org/1999/xlink" xlink:href="#s-Path_79-f51a5" fill="#B0E37A" fill-opacity="1.0"></use>
    </g>
  </g>
</svg>
