<?xml version="1.0" encoding="UTF-8"?>
<svg xmlns="http://www.w3.org/2000/svg" width="28.919891357421875" height="28.919921875" viewBox="1124.0000000000002 395.71804606817125 28.919891357421875 28.919921875" preserveAspectRatio="none">
  <g>
    <defs>
      <path id="s-Path_77-998f1" d="M1137.158551785892 420.299955997859 L1139.6890425139482 420.299955997859 L1139.6890425139482 418.49246262067606 C1140.8940380987367 418.275563415414 1141.930334301655 417.80561513734654 1142.7979311227027 417.0826177864734 C1143.6655279437505 416.35962043560016 1144.0993263542746 415.2871743651383 1144.0993263542746 413.8652795750877 C1144.0993263542746 412.8530832838652 1143.8101274139253 411.9252366835781 1143.2317295332266 411.081739774226 C1142.653331652528 410.2382428648739 1141.496535891131 409.5031955581529 1139.7613422490354 408.8765978540629 C1138.315347547289 408.39459962014735 1137.3152012119144 407.9728511654714 1136.7609032429118 407.61135249003485 C1136.206605273909 407.24985381459817 1135.9294562894077 406.7558056248348 1135.9294562894077 406.1292079207449 C1135.9294562894077 405.5026102166547 1136.1523804725934 405.00856202689135 1136.5982288389653 404.6470633514548 C1137.044077205337 404.2855646760181 1137.688749843199 404.1048153382999 1138.5322467525511 404.1048153382999 C1139.3034439268158 404.1048153382999 1139.90594171921 404.2915896539421 1140.339740129734 404.6651382852266 C1140.773538540258 405.0386869165111 1141.0868373923029 405.5026102166547 1141.279636685869 406.05690818565745 L1143.5932282086633 405.1170116295224 C1143.3281291800097 404.2735147201703 1142.8401059681703 403.5384674134492 1142.129158573145 402.91186970935905 C1141.4182111781197 402.285272005269 1140.6289390700833 401.9358232856804 1139.7613422490354 401.8635235505931 L1139.7613422490354 400.05603017341014 L1137.2308515209793 400.05603017341014 L1137.2308515209793 401.8635235505931 C1136.0258559361907 402.12862257924655 1135.0859593800556 402.6588206365536 1134.411161852574 403.45411772251407 C1133.7363643250924 404.2494148084745 1133.3989655613516 405.14111154121804 1133.3989655613516 406.1292079207449 C1133.3989655613516 407.2619037704461 1133.7303393471684 408.1777004148855 1134.393086918802 408.8765978540629 C1135.055834490436 409.57549529324024 1136.098155671278 410.1779930856345 1137.5200504613285 410.6840912312458 C1139.0383448981622 411.23838920024855 1140.0927160348524 411.7324373900119 1140.6831638713988 412.1662358005358 C1141.273611707945 412.6000342110598 1141.5688356262183 413.16638213591034 1141.5688356262183 413.8652795750877 C1141.5688356262183 414.66057666104814 1141.285661663793 415.2449995196707 1140.7193137389424 415.61854815095523 C1140.1529658140917 415.9920967822396 1139.472143308686 416.17887109788194 1138.6768462227255 416.17887109788194 C1137.8815491367652 416.17887109788194 1137.1766267196638 415.93184700300014 1136.5620789714217 415.4377988132368 C1135.9475312231793 414.94375062347365 1135.4956578788838 414.2026783388286 1135.2064589385345 413.2145819593019 L1132.8205676806529 414.15447851543706 C1133.1579664443939 415.3112742768342 1133.6821395237769 416.2451458550453 1134.393086918802 416.9560932500706 C1135.1040343138275 417.6670406450959 1136.0258559361907 418.15506385693527 1137.158551785892 418.42016288558864 L1137.158551785892 420.299955997859 Z M1138.4599470174637 424.637940103098 C1136.4596543467146 424.637940103098 1134.5798612344443 424.25836649388964 1132.8205676806529 423.4992192754728 C1131.0612741268615 422.74007205705595 1129.53092973418 421.70980083206166 1128.2295345026082 420.4084056004899 C1126.9281392710366 419.10701036891817 1125.8978680460423 417.57666597623665 1125.1387208276255 415.81737242244526 C1124.3795736092086 414.05807886865387 1124.0000000000002 412.1782857563836 1124.0000000000002 410.1779930856345 C1124.0000000000002 408.1777004148855 1124.3795736092086 406.29790730261516 1125.1387208276255 404.5386137488239 C1125.8978680460423 402.7793201950325 1126.9281392710366 401.24897580235074 1128.2295345026082 399.9475805707792 C1129.53092973418 398.64618533920736 1131.0612741268615 397.6159141142132 1132.8205676806529 396.85676689579634 C1134.5798612344443 396.0976196773795 1136.4596543467146 395.71804606817113 1138.4599470174637 395.71804606817113 C1140.4602396882128 395.71804606817113 1142.3400328004832 396.0976196773795 1144.0993263542746 396.85676689579634 C1145.858619908066 397.6159141142132 1147.3889643007474 398.64618533920736 1148.6903595323192 399.9475805707792 C1149.9917547638909 401.24897580235074 1151.0220259888852 402.7793201950325 1151.781173207302 404.5386137488239 C1152.5403204257188 406.29790730261516 1152.9198940349272 408.1777004148855 1152.9198940349272 410.1779930856345 C1152.9198940349272 412.1782857563836 1152.5403204257188 414.05807886865387 1151.781173207302 415.81737242244526 C1151.0220259888852 417.57666597623665 1149.9917547638909 419.10701036891817 1148.6903595323192 420.4084056004899 C1147.3889643007474 421.70980083206166 1145.858619908066 422.74007205705595 1144.0993263542746 423.4992192754728 C1142.3400328004832 424.25836649388964 1140.4602396882128 424.637940103098 1138.4599470174637 424.637940103098 Z M1138.4599470174637 421.74595069960526 C1141.6893351846973 421.74595069960526 1144.4246751621674 420.62530480575197 1146.6659669498742 418.38401301804504 C1148.907258737581 416.1427212303382 1150.0279046314345 413.40738125286816 1150.0279046314345 410.1779930856345 C1150.0279046314345 406.948604918401 1148.907258737581 404.2132649409309 1146.6659669498742 401.971973153224 C1144.4246751621674 399.73068136551717 1141.6893351846973 398.61003547166376 1138.4599470174637 398.61003547166376 C1135.2305588502302 398.61003547166376 1132.49521887276 399.73068136551717 1130.2539270850532 401.971973153224 C1128.0126352973464 404.2132649409309 1126.891989403493 406.948604918401 1126.891989403493 410.1779930856345 C1126.891989403493 413.40738125286816 1128.0126352973464 416.1427212303382 1130.2539270850532 418.38401301804504 C1132.49521887276 420.62530480575197 1135.2305588502302 421.74595069960526 1138.4599470174637 421.74595069960526 Z M1138.4599470174637 410.1779930856345 Z "></path>
    </defs>
    <g style="mix-blend-mode:normal">
      <use xmlns:xlink="http://www.w3.org/1999/xlink" xlink:href="#s-Path_77-998f1" fill="#61BC00" fill-opacity="1.0"></use>
    </g>
  </g>
</svg>
