<?xml version="1.0" encoding="UTF-8"?>
<svg xmlns="http://www.w3.org/2000/svg" width="26.98656463623047" height="26.852294921875" viewBox="1036.2170251556417 272.57384798419986 26.98656463623047 26.852294921875" preserveAspectRatio="none">
  <g>
    <defs>
      <path id="s-Path_19-cb4dd" d="M1046.0181161271757 299.42615201579997 L1045.4810700465437 295.1297833707438 C1045.1901700862013 295.0178987706122 1044.9160528158789 294.8836372504543 1044.658718235576 294.72699881026983 C1044.401383655273 294.5703603700856 1044.149643304977 294.4025334698881 1043.9034971846872 294.22351810967734 L1039.9092169599867 295.9017871116523 L1036.2170251556417 289.52436490414743 L1039.6742592997102 286.90626526106644 C1039.651882379684 286.749626820882 1039.6406939196706 286.5985826107044 1039.6406939196706 286.4531326305332 L1039.6406939196706 285.54686736946655 C1039.6406939196706 285.4014173892954 1039.651882379684 285.2503731791178 1039.6742592997102 285.09373473893334 L1036.2170251556417 282.47563509585234 L1039.9092169599867 276.09821288834723 L1043.9034971846872 277.7764818903222 C1044.149643304977 277.59746653011166 1044.4069778852797 277.42963962991416 1044.6755009255958 277.2730011897297 C1044.9440239659118 277.1163627495455 1045.2125470062279 276.9821012293876 1045.4810700465437 276.87021662925576 L1046.0181161271757 272.5738479841998 L1053.4024997358656 272.5738479841998 L1053.9395458164977 276.87021662925576 C1054.23044577684 276.9821012293876 1054.5045630471627 277.1163627495455 1054.7618976274655 277.2730011897297 C1055.0192322077683 277.42963962991416 1055.2709725580646 277.59746653011166 1055.517118678354 277.7764818903222 L1059.5113989030547 276.09821288834723 L1063.2035907073996 282.47563509585234 L1059.7463565633311 285.09373473893334 C1059.7687334833574 285.2503731791178 1059.7799219433707 285.4014173892954 1059.7799219433707 285.54686736946655 L1059.7799219433707 286.4531326305332 C1059.7799219433707 286.5985826107044 1059.7575450233444 286.749626820882 1059.7127911832918 286.90626526106644 L1063.1700253273602 289.52436490414743 L1059.4778335230153 295.9017871116523 L1055.517118678354 294.22351810967734 C1055.2709725580646 294.4025334698881 1055.0136379777618 294.5703603700856 1054.7451149374458 294.72699881026983 C1054.4765918971298 294.8836372504543 1054.2080688568137 295.0178987706122 1053.9395458164977 295.1297833707438 L1053.4024997358656 299.42615201579997 L1046.0181161271757 299.42615201579997 Z M1048.3676927299407 296.74092161264 L1051.0193577530613 296.74092161264 L1051.4892730736142 293.1829913284528 C1052.1829575944305 293.00397596824223 1052.8262940451878 292.7410471579328 1053.4192824258855 292.39420489752456 C1054.0122708065833 292.0473626371165 1054.5549111172218 291.62779538662267 1055.0472033578012 291.13550314604345 L1058.3701759817118 292.5116837276628 L1059.6792258032522 290.2292378849768 L1056.7926031198551 288.0474881824093 C1056.904487719987 287.73421130204065 1056.9828069400792 287.4041517316523 1057.0275607801318 287.057309471244 C1057.0723146201844 286.710467210836 1057.0946915402108 286.3580307204211 1057.0946915402108 285.9999999999998 C1057.0946915402108 285.64196927957846 1057.0723146201844 285.2895327891638 1057.0275607801318 284.9426905287555 C1056.9828069400792 284.5958482683475 1056.904487719987 284.2657886979591 1056.7926031198551 283.95251181759045 L1059.6792258032522 281.770762115023 L1058.3701759817118 279.48831627233676 L1055.0472033578012 280.8980622339959 C1054.5549111172218 280.38339307339015 1054.0122708065833 279.95263736288325 1053.4192824258855 279.605795102475 C1052.8262940451878 279.25895284206695 1052.1829575944305 278.99602403175754 1051.4892730736142 278.8170086715468 L1051.0529231331006 275.25907838735975 L1048.4012581099803 275.25907838735975 L1047.9313427894272 278.8170086715468 C1047.2376582686109 278.99602403175754 1046.5943218178538 279.25895284206695 1046.001333437156 279.605795102475 C1045.408345056458 279.95263736288325 1044.8657047458196 280.3722046133769 1044.3734125052401 280.8644968539563 L1041.0504398813298 279.48831627233676 L1039.7413900597892 281.770762115023 L1042.6280127431862 283.91894643755086 C1042.5161281430546 284.25460023794585 1042.4378089229624 284.59025403834084 1042.3930550829098 284.92590783873584 C1042.3483012428571 285.26156163913083 1042.3259243228308 285.61959235955214 1042.3259243228308 285.9999999999998 C1042.3259243228308 286.3580307204211 1042.3483012428571 286.70487298082935 1042.3930550829098 287.04052678122434 C1042.4378089229624 287.37618058161934 1042.5161281430546 287.71183438201433 1042.6280127431862 288.0474881824093 L1039.7413900597892 290.2292378849768 L1041.0504398813298 292.5116837276628 L1044.3734125052401 291.10193776600386 C1044.8657047458196 291.6166069266096 1045.408345056458 292.0473626371165 1046.001333437156 292.39420489752456 C1046.5943218178538 292.7410471579328 1047.2376582686109 293.00397596824223 1047.9313427894272 293.1829913284528 L1048.3676927299407 296.74092161264 Z M1049.7774386915996 290.6991532055299 C1051.075300053127 290.6991532055299 1052.1829575944305 290.24042634499006 1053.1004113155102 289.32297262391035 C1054.01786503659 288.40551890283064 1054.4765918971298 287.2978613615271 1054.4765918971298 285.9999999999998 C1054.4765918971298 284.70213863847243 1054.01786503659 283.59448109716914 1053.1004113155102 282.6770273760894 C1052.1829575944305 281.7595736550097 1051.075300053127 281.30084679446986 1049.7774386915996 281.30084679446986 C1048.457200410046 281.30084679446986 1047.343948638736 281.7595736550097 1046.4376833776696 282.6770273760894 C1045.531418116603 283.59448109716914 1045.0782854860697 284.70213863847243 1045.0782854860697 285.9999999999998 C1045.0782854860697 287.2978613615271 1045.531418116603 288.40551890283064 1046.4376833776696 289.32297262391035 C1047.343948638736 290.24042634499006 1048.457200410046 290.6991532055299 1049.7774386915996 290.6991532055299 Z M1049.7103079315207 285.9999999999998 Z "></path>
    </defs>
    <g style="mix-blend-mode:normal">
      <use xmlns:xlink="http://www.w3.org/1999/xlink" xlink:href="#s-Path_19-cb4dd" fill="#E3E3E3" fill-opacity="1.0"></use>
    </g>
  </g>
</svg>
