<?xml version="1.0" encoding="UTF-8"?>
<svg xmlns="http://www.w3.org/2000/svg" width="31.58885955810547" height="21.537841796875" viewBox="987.3132867345413 275.23107130980355 31.58885955810547 21.537841796875" preserveAspectRatio="none">
  <g>
    <defs>
      <path id="s-Path_5-cb4dd" d="M1007.6845101734948 290.57679469333243 C1008.940885187351 289.32041967947634 1009.569072694279 287.79482144836516 1009.569072694279 285.9999999999993 C1009.569072694279 284.2051785516335 1008.940885187351 282.6795803205223 1007.6845101734948 281.4232053066662 C1006.4281351596386 280.1668302928101 1004.9025369285275 279.53864278588185 1003.1077154801617 279.53864278588185 C1001.3128940317956 279.53864278588185 999.7872958006847 280.1668302928101 998.5309207868285 281.4232053066662 C997.2745457729723 282.6795803205223 996.6463582660442 284.2051785516335 996.6463582660442 285.9999999999993 C996.6463582660442 287.79482144836516 997.2745457729723 289.32041967947634 998.5309207868285 290.57679469333243 C999.7872958006847 291.8331697071885 1001.3128940317956 292.46135721411656 1003.1077154801617 292.46135721411656 C1004.9025369285275 292.46135721411656 1006.4281351596386 291.8331697071885 1007.6845101734948 290.57679469333243 Z M1000.3616386641618 288.74607681599923 C999.6078136558481 287.99225180768553 999.2309011516912 287.0768928690188 999.2309011516912 285.9999999999993 C999.2309011516912 284.9231071309798 999.6078136558481 284.0077481923131 1000.3616386641618 283.2539231839994 C1001.1154636724755 282.5000981756857 1002.0308226111421 282.12318567152874 1003.1077154801617 282.12318567152874 C1004.1846083491812 282.12318567152874 1005.0999672878478 282.5000981756857 1005.8537922961615 283.2539231839994 C1006.6076173044752 284.0077481923131 1006.984529808632 284.9231071309798 1006.984529808632 285.9999999999993 C1006.984529808632 287.0768928690188 1006.6076173044752 287.99225180768553 1005.8537922961615 288.74607681599923 C1005.0999672878478 289.49990182431293 1004.1846083491812 289.87681432846966 1003.1077154801617 289.87681432846966 C1002.0308226111421 289.87681432846966 1001.1154636724755 289.49990182431293 1000.3616386641618 288.74607681599923 Z M993.5592653748548 293.8433697293585 C990.6875510574692 291.8929970888007 988.6055581773647 289.2785405123477 987.3132867345413 285.9999999999993 C988.6055581773647 282.7214594876509 990.6875510574692 280.1070029111977 993.5592653748548 278.1566302706401 C996.4309796922403 276.2062576300825 999.6137963940092 275.2310713098036 1003.1077154801617 275.2310713098036 C1006.601634566314 275.2310713098036 1009.784451268083 276.2062576300825 1012.6561655854684 278.1566302706401 C1015.527879902854 280.1070029111977 1017.6098727829585 282.7214594876509 1018.902144225782 285.9999999999993 C1017.6098727829585 289.2785405123477 1015.527879902854 291.8929970888007 1012.6561655854684 293.8433697293585 C1009.784451268083 295.7937423699161 1006.601634566314 296.7689286901948 1003.1077154801617 296.7689286901948 C999.6137963940092 296.7689286901948 996.4309796922403 295.7937423699161 993.5592653748548 293.8433697293585 Z M1003.1077154801617 285.9999999999993 Z M1010.5562244908804 291.761376849254 C1012.8176995158215 290.33748516688365 1014.546710844414 288.41702621713193 1015.743258476658 285.9999999999993 C1014.546710844414 283.5829737828665 1012.8176995158215 281.662514833115 1010.5562244908804 280.2386231507446 C1008.2947494659393 278.81473146837425 1005.811913129033 278.1027856271892 1003.1077154801617 278.1027856271892 C1000.4035178312903 278.1027856271892 997.9206814943841 278.81473146837425 995.659206469443 280.2386231507446 C993.3977314445019 281.662514833115 991.6687201159093 283.5829737828665 990.4721724836654 285.9999999999993 C991.6687201159093 288.41702621713193 993.3977314445019 290.33748516688365 995.659206469443 291.761376849254 C997.9206814943841 293.18526853162416 1000.4035178312903 293.89721437280946 1003.1077154801617 293.89721437280946 C1005.811913129033 293.89721437280946 1008.2947494659393 293.18526853162416 1010.5562244908804 291.761376849254 Z "></path>
    </defs>
    <g style="mix-blend-mode:normal">
      <use xmlns:xlink="http://www.w3.org/1999/xlink" xlink:href="#s-Path_5-cb4dd" fill="#64B8F6" fill-opacity="1.0"></use>
    </g>
  </g>
</svg>
