<?xml version="1.0" encoding="UTF-8"?>
<svg xmlns="http://www.w3.org/2000/svg" width="34.842247009277344" height="25.2606201171875" viewBox="1121.7585460570165 273.36968619937727 34.842247009277344 25.2606201171875" preserveAspectRatio="none">
  <g>
    <defs>
      <path id="s-Path_26-cb4dd" d="M1144.4060052857183 296.88820155225983 L1144.4060052857183 293.40397705553653 L1151.3744542791649 293.40397705553653 L1151.3744542791649 296.88820155225983 L1144.4060052857183 296.88820155225983 Z M1144.4060052857183 282.9513035653664 L1144.4060052857183 279.467079068643 L1156.60079102425 279.467079068643 L1156.60079102425 282.9513035653664 L1144.4060052857183 282.9513035653664 Z M1144.4060052857183 289.9197525588131 L1144.4060052857183 286.4355280620897 L1154.8586787758882 286.4355280620897 L1154.8586787758882 289.9197525588131 L1144.4060052857183 289.9197525588131 Z M1123.5006583053782 279.467079068643 L1121.7585460570165 279.467079068643 L1121.7585460570165 275.9828545719197 L1128.726995050463 275.9828545719197 L1128.726995050463 273.36968619937716 L1135.69544404391 273.36968619937716 L1135.69544404391 275.9828545719197 L1142.6638930373565 275.9828545719197 L1142.6638930373565 279.467079068643 L1140.921780788995 279.467079068643 L1140.921780788995 295.1460893038982 C1140.921780788995 296.10425104049705 1140.5806171403574 296.92449555743406 1139.8982898430825 297.606822854709 C1139.2159625458073 298.289150151984 1138.3957180288705 298.6303138006215 1137.4375562922714 298.6303138006215 L1126.9848828021015 298.6303138006215 C1126.0267210655027 298.6303138006215 1125.2064765485657 298.289150151984 1124.5241492512907 297.606822854709 C1123.8418219540156 296.92449555743406 1123.5006583053782 296.10425104049705 1123.5006583053782 295.1460893038982 L1123.5006583053782 279.467079068643 Z M1126.9848828021015 279.467079068643 L1126.9848828021015 295.1460893038982 L1137.4375562922714 295.1460893038982 L1137.4375562922714 279.467079068643 L1126.9848828021015 279.467079068643 Z M1126.9848828021015 279.467079068643 L1126.9848828021015 295.1460893038982 L1126.9848828021015 279.467079068643 Z "></path>
    </defs>
    <g style="mix-blend-mode:normal">
      <use xmlns:xlink="http://www.w3.org/1999/xlink" xlink:href="#s-Path_26-cb4dd" fill="#F16B6B" fill-opacity="1.0"></use>
    </g>
  </g>
</svg>
