<?xml version="1.0" encoding="UTF-8"?>
<svg xmlns="http://www.w3.org/2000/svg" width="39.126129150390625" height="21.341552734375" viewBox="1100.0000000000002 278.0206041514197 39.126129150390625 21.341552734375" preserveAspectRatio="none">
  <g>
    <defs>
      <path id="s-Path_19-2b4d2" d="M1110.6707617370676 299.3621276255544 C1107.7066612545489 299.3621276255544 1105.1871758444079 298.3246924566728 1103.1123055066448 296.2498221189097 C1101.0374351688818 294.17495178114655 1100.0000000000002 291.6554663710057 1100.0000000000002 288.691365888487 C1100.0000000000002 285.7272654059683 1101.0374351688818 283.20777999582754 1103.1123055066448 281.13290965806436 C1105.1871758444079 279.0580393203013 1107.7066612545489 278.0206041514198 1110.6707617370676 278.0206041514198 L1128.4553646321797 278.0206041514198 C1131.4194651146984 278.0206041514198 1133.9389505248394 279.0580393203013 1136.0138208626024 281.13290965806436 C1138.0886912003655 283.20777999582754 1139.126126369247 285.7272654059683 1139.126126369247 288.691365888487 C1139.126126369247 291.6554663710057 1138.0886912003655 294.17495178114655 1136.0138208626024 296.2498221189097 C1133.9389505248394 298.3246924566728 1131.4194651146984 299.3621276255544 1128.4553646321797 299.3621276255544 L1110.6707617370676 299.3621276255544 Z M1110.6707617370676 295.8052070465319 L1128.4553646321797 295.8052070465319 C1130.411670950642 295.8052070465319 1132.086387723265 295.10864343314006 1133.479514950049 293.71551620635626 C1134.8726421768326 292.32238897957245 1135.5692057902245 290.6476722069493 1135.5692057902245 288.691365888487 C1135.5692057902245 286.73505957002476 1134.8726421768326 285.0603427974015 1133.479514950049 283.6672155706178 C1132.086387723265 282.274088343834 1130.411670950642 281.5775247304422 1128.4553646321797 281.5775247304422 L1110.6707617370676 281.5775247304422 C1108.7144554186052 281.5775247304422 1107.0397386459822 282.274088343834 1105.6466114191983 283.6672155706178 C1104.2534841924146 285.0603427974015 1103.5569205790227 286.73505957002476 1103.5569205790227 288.691365888487 C1103.5569205790227 290.6476722069493 1104.2534841924146 292.32238897957245 1105.6466114191983 293.71551620635626 C1107.0397386459822 295.10864343314006 1108.7144554186052 295.8052070465319 1110.6707617370676 295.8052070465319 Z M1114.4499898522788 292.47059400369835 C1115.4874250211603 291.4331588348168 1116.006142605601 290.17341612974633 1116.006142605601 288.691365888487 C1116.006142605601 287.20931564722764 1115.4874250211603 285.94957294215726 1114.4499898522788 284.91213777327573 C1113.4125546833973 283.8747026043942 1112.1528119783268 283.3559850199533 1110.6707617370676 283.3559850199533 C1109.188711495808 283.3559850199533 1107.9289687907378 283.8747026043942 1106.891533621856 284.91213777327573 C1105.8540984529745 285.94957294215726 1105.3353808685338 287.20931564722764 1105.3353808685338 288.691365888487 C1105.3353808685338 290.17341612974633 1105.8540984529745 291.4331588348168 1106.891533621856 292.47059400369835 C1107.9289687907378 293.5080291725799 1109.188711495808 294.02674675702076 1110.6707617370676 294.02674675702076 C1112.1528119783268 294.02674675702076 1113.4125546833973 293.5080291725799 1114.4499898522788 292.47059400369835 Z M1119.5630631846236 288.691365888487 Z "></path>
    </defs>
    <g style="mix-blend-mode:normal">
      <use xmlns:xlink="http://www.w3.org/1999/xlink" xlink:href="#s-Path_19-2b4d2" fill="#F16B6B" fill-opacity="1.0"></use>
    </g>
  </g>
</svg>
