<?xml version="1.0" encoding="UTF-8"?>
<svg xmlns="http://www.w3.org/2000/svg" width="23.172393798828125" height="23.17242431640625" viewBox="903.5136960806356 453.8910753880272 23.172393798828125 23.17242431640625" preserveAspectRatio="none">
  <g>
    <defs>
      <path id="s-Path_14-f51a5" d="M910.9288623777528 471.2703713968956 L915.0998934198813 467.09934035476726 L919.2709244620097 471.2703713968956 L920.8929920895041 469.6483037694011 L916.7219610473757 465.47727272727275 L920.8929920895041 461.3062416851444 L919.2709244620097 459.6841740576499 L915.0998934198813 463.85520509977846 L910.9288623777528 459.6841740576499 L909.3067947502584 461.3062416851444 L913.4778257923869 465.47727272727275 L909.3067947502584 469.6483037694011 L910.9288623777528 471.2703713968956 Z M915.0998934198813 477.06347006651845 C913.4971361212856 477.06347006651845 911.9909304671837 476.7593323863632 910.5812764575754 476.15105702605274 C909.1716224479671 475.5427816657425 907.945416562897 474.7172651053211 906.902658802365 473.67450734478916 C905.8599010418328 472.631749584257 905.0343844814115 471.40554369918686 904.4261091211011 469.9958896895787 C903.8178337607908 468.5862356799703 903.5136960806356 467.0800300258684 903.5136960806356 465.47727272727275 C903.5136960806356 463.8745154286771 903.8178337607908 462.3683097745752 904.4261091211011 460.95865576496703 C905.0343844814115 459.54900175535886 905.8599010418328 458.3227958702887 906.902658802365 457.28003810975656 C907.945416562897 456.2372803492244 909.1716224479671 455.4117637888032 910.5812764575754 454.80348842849276 C911.9909304671837 454.1952130681825 913.4971361212856 453.8910753880273 915.0998934198813 453.8910753880273 C916.7026507184769 453.8910753880273 918.2088563725788 454.1952130681825 919.6185103821871 454.80348842849276 C921.0281643917953 455.4117637888032 922.2543702768655 456.2372803492244 923.2971280373976 457.28003810975656 C924.3398857979297 458.3227958702887 925.165402358351 459.54900175535886 925.7736777186614 460.95865576496703 C926.3819530789717 462.3683097745752 926.686090759127 463.8745154286771 926.686090759127 465.47727272727275 C926.686090759127 467.0800300258684 926.3819530789717 468.5862356799703 925.7736777186614 469.9958896895787 C925.165402358351 471.40554369918686 924.3398857979297 472.631749584257 923.2971280373976 473.67450734478916 C922.2543702768655 474.7172651053211 921.0281643917953 475.5427816657425 919.6185103821871 476.15105702605274 C918.2088563725788 476.7593323863632 916.7026507184769 477.06347006651845 915.0998934198813 477.06347006651845 Z M915.0998934198813 474.7462305986692 C917.6874774923128 474.7462305986692 919.8791998223201 473.84830030487774 921.6750604099032 472.05243971729465 C923.4709209974862 470.25657912971155 924.3688512912778 468.06485679970433 924.3688512912778 465.47727272727275 C924.3688512912778 462.88968865484117 923.4709209974862 460.69796632483394 921.6750604099032 458.9021057372511 C919.8791998223201 457.106245149668 917.6874774923128 456.2083148558763 915.0998934198813 456.2083148558763 C912.5123093474497 456.2083148558763 910.3205870174424 457.106245149668 908.5247264298594 458.9021057372511 C906.7288658422763 460.69796632483394 905.8309355484847 462.88968865484117 905.8309355484847 465.47727272727275 C905.8309355484847 468.06485679970433 906.7288658422763 470.25657912971155 908.5247264298594 472.05243971729465 C910.3205870174424 473.84830030487774 912.5123093474497 474.7462305986692 915.0998934198813 474.7462305986692 Z M915.0998934198813 465.47727272727275 Z "></path>
    </defs>
    <g style="mix-blend-mode:normal">
      <use xmlns:xlink="http://www.w3.org/1999/xlink" xlink:href="#s-Path_14-f51a5" fill="#F16B6B" fill-opacity="1.0"></use>
    </g>
  </g>
</svg>
