<?xml version="1.0" encoding="UTF-8"?>
<svg xmlns="http://www.w3.org/2000/svg" width="28.251785278320312" height="28.25177001953125" viewBox="884.4980663629466 334.38575236330126 28.251785278320312 28.25177001953125" preserveAspectRatio="none">
  <g>
    <defs>
      <path id="s-Path_82-998f1" d="M906.7071117691024 362.1666784190577 L897.2113715071065 352.5924609648139 C896.6881902254538 352.8017334774747 896.1584691777805 352.9586878619707 895.6222083640864 353.0633241183011 C895.0859475503926 353.1679603746318 894.5169879065952 353.2202785027971 893.9153294326946 353.2202785027971 C891.2994230244313 353.2202785027971 889.0759025774074 352.3047112599047 887.2447680916231 350.4735767741206 C885.4136336058388 348.64244228833604 884.4980663629466 346.41892184131234 884.4980663629466 343.80301543304904 C884.4980663629466 342.8612891260741 884.6288616833598 341.96534118124396 884.8904523241861 341.1151715985584 C885.1520429650125 340.2650020158728 885.5182698621693 339.46061079533183 885.9891330156568 338.7019979369354 L891.7179680497534 344.43083297103226 L894.5431469706779 341.60565405010766 L888.8143119365811 335.87681901601104 C889.5729247949774 335.40595586252357 890.3773160155184 335.03972896536675 891.2274855982041 334.77813832454035 C892.0776551808897 334.5165476837142 892.9736031257198 334.385752363301 893.9153294326946 334.385752363301 C896.531235840958 334.385752363301 898.7547562879819 335.3013196061929 900.5858907737662 337.1324540919775 C902.4170252595505 338.9635885777618 903.3325925024427 341.18710902478574 903.3325925024427 343.80301543304904 C903.3325925024427 344.4046739069495 903.2802743742775 344.97363355074685 903.175638117947 345.5098943644407 C903.0710018616164 346.04615517813477 902.9140474771206 346.5758762258081 902.7047749644595 347.09905750746066 L912.2789924187034 356.5947977694566 C912.5929011876949 356.9087065384483 912.7498555721908 357.2880129676464 912.7498555721908 357.73271705705133 C912.7498555721908 358.177421146456 912.5929011876949 358.55672757565435 912.2789924187034 358.87063634464585 L908.9829503442916 362.1666784190577 C908.6690415753 362.4805871880492 908.2897351461017 362.63754157254516 907.845031056697 362.63754157254516 C907.4003269672922 362.63754157254516 907.021020538094 362.4805871880492 906.7071117691024 362.1666784190577 Z M907.845031056697 358.831397748522 L908.9044731520437 357.77195565317516 L898.8593925443124 347.7268750454441 C899.3302556977998 347.2036937637913 899.670323530874 346.5954955238701 899.8795960435351 345.9022803256803 C900.0888685561962 345.2090651274905 900.1935048125267 344.50931016328013 900.1935048125267 343.80301543304904 C900.1935048125267 342.2334715880909 899.689942828936 340.86666048977327 898.6828188617546 339.7025821380962 C897.6756948945732 338.5385037864189 896.4265995846274 337.8387488222086 894.9355329319174 337.6033172454647 L897.8391890450897 340.5069733586372 C898.1530978140813 340.8208821276287 898.3100521985771 341.18710902478574 898.3100521985771 341.60565405010766 C898.3100521985771 342.0241990754298 898.1530978140813 342.39042597258685 897.8391890450897 342.70433474157835 L892.8166487412241 347.7268750454441 C892.5027399722325 348.0407838144356 892.1365130750755 348.19773819893135 891.7179680497534 348.19773819893135 C891.2994230244313 348.19773819893135 890.9331961272744 348.0407838144356 890.6192873582828 347.7268750454441 L887.7156312451104 344.82321893227163 C887.9510628218542 346.3142855849817 888.6508177860646 347.5633808949276 889.8148961377418 348.5705048621089 C890.978974489419 349.57762882929023 892.3457855877366 350.081190812881 893.9153294326946 350.081190812881 C894.5954650988431 350.081190812881 895.2756007649916 349.97655455655035 895.95573643114 349.7672820438895 C896.6358720972885 349.55800953122844 897.2506101032304 349.23102123019544 897.7999504489658 348.7863171407905 L907.845031056697 358.831397748522 Z M898.3100521985771 348.19773819893135 Z "></path>
    </defs>
    <g style="mix-blend-mode:normal">
      <use xmlns:xlink="http://www.w3.org/1999/xlink" xlink:href="#s-Path_82-998f1" fill="#E3E3E3" fill-opacity="1.0"></use>
    </g>
  </g>
</svg>
