<?xml version="1.0" encoding="UTF-8"?>
<svg xmlns="http://www.w3.org/2000/svg" width="29.085189819335938" height="29.085205078125" viewBox="780.0 271.3933838606671 29.085189819335938 29.085205078125" preserveAspectRatio="none">
  <g>
    <defs>
      <path id="s-Path_55-2b4d2" d="M789.4072390376912 283.8000324466078 C787.9832769289263 282.376070337843 787.271295874544 280.6642861007107 787.271295874544 278.66467973521117 C787.271295874544 276.66507336971165 787.9832769289263 274.95328913257936 789.4072390376912 273.5293270238145 C790.8312011464561 272.1053649150497 792.5429853835883 271.3933838606672 794.5425917490879 271.3933838606672 C796.5421981145874 271.3933838606672 798.2539823517197 272.1053649150497 799.6779444604846 273.5293270238145 C801.1019065692494 274.95328913257936 801.8138876236318 276.66507336971165 801.8138876236318 278.66467973521117 C801.8138876236318 280.6642861007107 801.1019065692494 282.376070337843 799.6779444604846 283.8000324466078 C798.2539823517197 285.22399455537266 796.5421981145874 285.935975609755 794.5425917490879 285.935975609755 C792.5429853835883 285.935975609755 790.8312011464561 285.22399455537266 789.4072390376912 283.8000324466078 Z M780.0 300.47856735884295 L780.0 295.3886602466622 C780.0 294.35855999776845 780.2650993287594 293.41177668077046 780.7952979862782 292.54831029566844 C781.3254966437971 291.6848439105663 782.0299034316436 291.0258827219358 782.9085183498175 290.5714267297768 C784.7869364507415 289.63221767931486 786.6956516178093 288.9278108914684 788.634663851021 288.4582063662375 C790.5736760842326 287.9886018410066 792.5429853835883 287.75379957839107 794.5425917490879 287.75379957839107 C796.5421981145874 287.75379957839107 798.5115074139431 287.9886018410066 800.4505196471548 288.4582063662375 C802.3895318803666 288.9278108914684 804.2982470474343 289.63221767931486 806.1766651483582 290.5714267297768 C807.0552800665323 291.0258827219358 807.7596868543787 291.6848439105663 808.2898855118975 292.54831029566844 C808.8200841694163 293.41177668077046 809.0851834981758 294.35855999776845 809.0851834981758 295.3886602466622 L809.0851834981758 300.47856735884295 L780.0 300.47856735884295 Z M783.635647937272 296.84291942157097 L805.4495355609038 296.84291942157097 L805.4495355609038 295.3886602466622 C805.4495355609038 295.05539251907896 805.366218629008 294.75242185763955 805.1995847652163 294.4797482623442 C805.0329509014247 294.2070746670488 804.8132971718812 293.9949952040413 804.5406235765859 293.8435098733215 C802.9045820048134 293.0254890874354 801.2533918999691 292.41197349802076 799.5870532620527 292.0029631050777 C797.9207146241364 291.5939527121345 796.2392274531481 291.38944751566305 794.5425917490879 291.38944751566305 C792.8459560450276 291.38944751566305 791.1644688740394 291.5939527121345 789.498130236123 292.0029631050777 C787.8317915982067 292.41197349802076 786.1806014933624 293.0254890874354 784.54455992159 293.8435098733215 C784.2718863262945 293.9949952040413 784.0522325967511 294.2070746670488 783.8855987329594 294.4797482623442 C783.7189648691678 294.75242185763955 783.635647937272 295.05539251907896 783.635647937272 295.3886602466622 L783.635647937272 296.84291942157097 Z M797.1102681047862 281.23235609090943 C797.8222491591687 280.52037503652707 798.1782396863598 279.664482917961 798.1782396863598 278.66467973521117 C798.1782396863598 277.66487655246135 797.8222491591687 276.80898443389526 797.1102681047862 276.0970033795128 C796.3982870504037 275.3850223251304 795.5423949318376 275.0290317979392 794.5425917490879 275.0290317979392 C793.5427885663381 275.0290317979392 792.686896447772 275.3850223251304 791.9749153933896 276.0970033795128 C791.2629343390072 276.80898443389526 790.906943811816 277.66487655246135 790.906943811816 278.66467973521117 C790.906943811816 279.664482917961 791.2629343390072 280.52037503652707 791.9749153933896 281.23235609090943 C792.686896447772 281.9443371452919 793.5427885663381 282.30032767248304 794.5425917490879 282.30032767248304 C795.5423949318376 282.30032767248304 796.3982870504037 281.9443371452919 797.1102681047862 281.23235609090943 Z M794.5425917490879 278.66467973521117 Z M794.5425917490879 296.84291942157097 Z "></path>
    </defs>
    <g style="mix-blend-mode:normal">
      <use xmlns:xlink="http://www.w3.org/1999/xlink" xlink:href="#s-Path_55-2b4d2" fill="#F16B6B" fill-opacity="1.0"></use>
    </g>
  </g>
</svg>
