<?xml version="1.0" encoding="UTF-8"?>
<svg xmlns="http://www.w3.org/2000/svg" width="42.736732482910156" height="31.08123779296875" viewBox="1009.3183457803981 271.7746078482302 42.736732482910156 31.08123779296875" preserveAspectRatio="none">
  <g>
    <defs>
      <path id="s-Path_21-2b4d2" d="M1013.5677370416316 297.6351889523087 C1010.7348095341426 294.8022614448196 1009.3183457803981 291.36227804286864 1009.3183457803981 287.31523874645563 C1009.3183457803981 283.26819945004286 1010.7348095341426 279.8282160480917 1013.5677370416316 276.9952885406028 C1016.4006645491207 274.1623610331137 1019.8406479510717 272.7458972793693 1023.8876872474847 272.7458972793693 C1027.9347265438976 272.7458972793693 1031.3747099458485 274.1623610331137 1034.2076374533376 276.9952885406028 C1037.0405649608267 279.8282160480917 1038.4570287145712 283.26819945004286 1038.4570287145712 287.31523874645563 C1038.4570287145712 291.36227804286864 1037.0405649608267 294.8022614448196 1034.2076374533376 297.6351889523087 C1031.3747099458485 300.4681164597978 1027.9347265438976 301.8845802135422 1023.8876872474847 301.8845802135422 C1019.8406479510717 301.8845802135422 1016.4006645491207 300.4681164597978 1013.5677370416316 297.6351889523087 Z M1043.3134758702668 302.8558696446812 L1043.3134758702668 279.1564075248873 L1041.1766391217607 281.29324427339316 L1038.4570287145712 278.57363386620386 L1045.256054732545 271.77460784823006 L1052.0550807505188 278.57363386620386 L1049.2869058717722 281.29324427339316 L1047.1986335948231 279.2049719964441 L1047.1986335948231 302.8558696446812 L1043.3134758702668 302.8558696446812 Z M1031.4637448103697 294.89129630934076 C1033.535828930133 292.81921218957723 1034.5718709900148 290.2938596686156 1034.5718709900148 287.31523874645563 C1034.5718709900148 284.3366178242959 1033.535828930133 281.81126530333404 1031.4637448103697 279.73918118357074 C1029.3916606906062 277.66709706380743 1026.8663081696445 276.63105500392567 1023.8876872474847 276.63105500392567 C1020.9090663253247 276.63105500392567 1018.3837138043631 277.66709706380743 1016.3116296845997 279.73918118357074 C1014.2395455648362 281.81126530333404 1013.2035035049545 284.3366178242959 1013.2035035049545 287.31523874645563 C1013.2035035049545 290.2938596686156 1014.2395455648362 292.81921218957723 1016.3116296845997 294.89129630934076 C1018.3837138043631 296.9633804291043 1020.9090663253247 297.99942248898583 1023.8876872474847 297.99942248898583 C1026.8663081696445 297.99942248898583 1029.3916606906062 296.9633804291043 1031.4637448103697 294.89129630934076 Z M1027.772844972041 294.11426476442944 L1030.4924553792305 291.3946543572399 L1025.8302661097628 286.6839006162154 L1025.8302661097628 279.54492329734285 L1021.9451083852065 279.54492329734285 L1021.9451083852065 288.28652817759485 L1027.772844972041 294.11426476442944 Z M1023.8876872474847 287.31523874645563 Z "></path>
    </defs>
    <g style="mix-blend-mode:normal">
      <use xmlns:xlink="http://www.w3.org/1999/xlink" xlink:href="#s-Path_21-2b4d2" fill="#CCB92E" fill-opacity="1.0"></use>
    </g>
  </g>
</svg>
