<?xml version="1.0" encoding="UTF-8"?>
<svg xmlns="http://www.w3.org/2000/svg" width="34.14849090576172" height="24.83526611328125" viewBox="1059.9999999999998 278.0206041514199 34.14849090576172 24.83526611328125" preserveAspectRatio="none">
  <g>
    <defs>
      <path id="s-Path_62-2b4d2" d="M1080.1786532132746 291.99044099137916 C1078.8851498021672 291.99044099137916 1077.7856719027259 291.5377147974915 1076.8802195149508 290.6322624097164 C1075.9747671271757 289.72681002194133 1075.522040933288 288.6273321225 1075.522040933288 287.3338287113926 C1075.522040933288 286.0403253002851 1075.9747671271757 284.94084740084395 1076.8802195149508 284.03539501306875 C1077.7856719027259 283.12994262529367 1078.8851498021672 282.6772164314061 1080.1786532132746 282.6772164314061 C1081.472156624382 282.6772164314061 1082.5716345238231 283.12994262529367 1083.4770869115985 284.03539501306875 C1084.3825392993735 284.94084740084395 1084.8352654932612 286.0403253002851 1084.8352654932612 287.3338287113926 C1084.8352654932612 288.6273321225 1084.3825392993735 289.72681002194133 1083.4770869115985 290.6322624097164 C1082.5716345238231 291.5377147974915 1081.472156624382 291.99044099137916 1080.1786532132746 291.99044099137916 Z M1069.3132245599727 296.6470532713656 C1068.459512308642 296.6470532713656 1067.7286828813662 296.3430799697553 1067.1207362781458 295.7351333665349 C1066.5127896749254 295.1271867633144 1066.2088163733151 294.3963573360387 1066.2088163733151 293.54264508470783 L1066.2088163733151 281.1250123380772 C1066.2088163733151 280.27130008674635 1066.5127896749254 279.54047065947077 1067.1207362781458 278.93252405625014 C1067.7286828813662 278.32457745302975 1068.459512308642 278.02060415141955 1069.3132245599727 278.02060415141955 L1091.0440818665766 278.02060415141955 C1091.8977941179073 278.02060415141955 1092.628623545183 278.32457745302975 1093.2365701484034 278.93252405625014 C1093.8445167516238 279.54047065947077 1094.1484900532341 280.27130008674635 1094.1484900532341 281.1250123380772 L1094.1484900532341 293.54264508470783 C1094.1484900532341 294.3963573360387 1093.8445167516238 295.1271867633144 1093.2365701484034 295.7351333665349 C1092.628623545183 296.3430799697553 1091.8977941179073 296.6470532713656 1091.0440818665766 296.6470532713656 L1069.3132245599727 296.6470532713656 Z M1072.4176327466305 293.54264508470783 L1087.9396736799188 293.54264508470783 C1087.9396736799188 292.68893283337707 1088.243646981529 291.9581034061014 1088.8515935847495 291.350156802881 C1089.4595401879699 290.74221019966046 1090.1903696152456 290.43823689805015 1091.0440818665766 290.43823689805015 L1091.0440818665766 284.2294205247349 C1090.1903696152456 284.2294205247349 1089.4595401879699 283.9254472231246 1088.8515935847495 283.3175006199042 C1088.243646981529 282.7095540166837 1087.9396736799188 281.9787245894081 1087.9396736799188 281.1250123380772 L1072.4176327466305 281.1250123380772 C1072.4176327466305 281.9787245894081 1072.1136594450202 282.7095540166837 1071.5057128417998 283.3175006199042 C1070.8977662385794 283.9254472231246 1070.1669368113037 284.2294205247349 1069.3132245599727 284.2294205247349 L1069.3132245599727 290.43823689805015 C1070.1669368113037 290.43823689805015 1070.8977662385794 290.74221019966046 1071.5057128417998 291.350156802881 C1072.1136594450202 291.9581034061014 1072.4176327466305 292.68893283337707 1072.4176327466305 293.54264508470783 Z M1089.4918777732476 302.855869644681 L1063.1044081866573 302.855869644681 C1062.2506959353266 302.855869644681 1061.5198665080509 302.5518963430708 1060.9119199048305 301.94394973985015 C1060.30397330161 301.33600313662976 1059.9999999999998 300.6051737093542 1059.9999999999998 299.7514614580233 L1059.9999999999998 282.6772164314061 L1063.1044081866573 282.6772164314061 L1063.1044081866573 299.7514614580233 L1089.4918777732476 299.7514614580233 L1089.4918777732476 302.855869644681 Z M1069.3132245599727 293.54264508470783 L1069.3132245599727 281.1250123380772 L1069.3132245599727 293.54264508470783 Z "></path>
    </defs>
    <g style="mix-blend-mode:normal">
      <use xmlns:xlink="http://www.w3.org/1999/xlink" xlink:href="#s-Path_62-2b4d2" fill="#FF806A" fill-opacity="1.0"></use>
    </g>
  </g>
</svg>
