<?xml version="1.0" encoding="UTF-8"?>
<svg xmlns="http://www.w3.org/2000/svg" width="28.571426391601562" height="33.33331298828125" viewBox="1079.4398708544288 330.3948170731694 28.571426391601562 33.33331298828125" preserveAspectRatio="none">
  <g>
    <defs>
      <path id="s-Path_50-998f1" d="M1088.9636803782382 333.56942024777277 L1088.9636803782382 330.3948170731695 L1098.4874899020479 330.3948170731695 L1098.4874899020479 333.56942024777277 L1088.9636803782382 333.56942024777277 Z M1088.1898708544288 362.59719802555037 C1086.4570666216246 361.84322977158206 1084.9425163570743 360.8180974964498 1083.646220060778 359.5218012001535 C1082.3499237644817 358.2255049038573 1081.3247914893495 356.71095463930703 1080.570823235381 354.9781504065029 C1079.816854981413 353.2453461736985 1079.4398708544288 351.40010807846033 1079.4398708544288 349.44243612078844 C1079.4398708544288 347.48476416311655 1079.816854981413 345.6395260678785 1080.570823235381 343.9067218350742 C1081.3247914893495 342.1739176022701 1082.3499237644817 340.6593673377197 1083.646220060778 339.3630710414235 C1084.9425163570743 338.0667747451272 1086.4570666216246 337.04164246999494 1088.1898708544288 336.28767421602663 C1089.922675087233 335.53370596205843 1091.7679131824711 335.15672183507434 1093.725585140143 335.15672183507434 C1095.3657967803547 335.15672183507434 1096.9398708544288 335.4212720996245 1098.4478073623652 335.95037262872506 C1099.9557438703018 336.4794731578256 1101.3710877856456 337.24666892502137 1102.693839108397 338.2519599303124 L1104.9160613306192 336.0297377080901 L1107.1382835528414 338.2519599303124 L1104.9160613306192 340.4741821525346 C1105.9213523359101 341.796933475286 1106.6885481031059 343.21227739062977 1107.2176486322064 344.7202138985664 C1107.746749161307 346.2281504065028 1108.0112994258573 347.8022244805769 1108.0112994258573 349.44243612078844 C1108.0112994258573 351.40010807846033 1107.6343152988732 353.2453461736985 1106.880347044905 354.9781504065029 C1106.1263787909365 356.71095463930703 1105.1012465158044 358.2255049038573 1103.804950219508 359.5218012001535 C1102.5086539232118 360.8180974964498 1100.9941036586615 361.84322977158206 1099.2612994258573 362.59719802555037 C1097.528495193053 363.3511662795187 1095.683257097815 363.7281504065028 1093.725585140143 363.7281504065028 C1091.7679131824711 363.7281504065028 1089.922675087233 363.3511662795187 1088.1898708544288 362.59719802555037 Z M1101.582727997286 357.2995789779312 C1103.752040166598 355.1302668086191 1104.8366962512541 352.51121918957153 1104.8366962512541 349.44243612078844 C1104.8366962512541 346.37365305200535 1103.752040166598 343.7546054329579 1101.582727997286 341.58529326364567 C1099.4134158279737 339.41598109433346 1096.794368208926 338.33132500967736 1093.725585140143 338.33132500967736 C1090.65680207136 338.33132500967736 1088.0377544523124 339.41598109433346 1085.8684422830001 341.58529326364567 C1083.6991301136882 343.7546054329579 1082.614474029032 346.37365305200535 1082.614474029032 349.44243612078844 C1082.614474029032 352.51121918957153 1083.6991301136882 355.1302668086191 1085.8684422830001 357.2995789779312 C1088.0377544523124 359.4688911472434 1090.65680207136 360.55354723189964 1093.725585140143 360.55354723189964 C1096.794368208926 360.55354723189964 1099.4134158279737 359.4688911472434 1101.582727997286 357.2995789779312 Z M1093.725585140143 349.44243612078844 Z M1088.9636803782382 355.7916424699948 L1092.1382835528416 355.7916424699948 L1092.1382835528416 343.0932297715822 L1088.9636803782382 343.0932297715822 L1088.9636803782382 355.7916424699948 Z M1095.3128867274447 355.7916424699948 L1098.4874899020479 355.7916424699948 L1098.4874899020479 343.0932297715822 L1095.3128867274447 343.0932297715822 L1095.3128867274447 355.7916424699948 Z "></path>
    </defs>
    <g style="mix-blend-mode:normal">
      <use xmlns:xlink="http://www.w3.org/1999/xlink" xlink:href="#s-Path_50-998f1" fill="#ECDA7E" fill-opacity="1.0"></use>
    </g>
  </g>
</svg>
