<?xml version="1.0" encoding="UTF-8"?>
<svg xmlns="http://www.w3.org/2000/svg" width="32.94914245605469" height="34.68328857421875" viewBox="656.6953514758873 509.158346948303 32.94914245605469 34.68328857421875" preserveAspectRatio="none">
  <g>
    <defs>
      <path id="s-Path_50-f51a5" d="M680.1065830956786 540.373322441358 L681.8407484008483 540.373322441358 L681.8407484008483 533.4366612206792 L680.1065830956786 533.4366612206792 L680.1065830956786 540.373322441358 Z M680.9736657482634 531.7024959155094 C681.2048877889528 531.7024959155094 681.4072070745558 531.6157876502509 681.5806236050728 531.4423711197339 C681.7540401355898 531.2689545892171 681.8407484008483 531.0666353036138 681.8407484008483 530.8354132629246 C681.8407484008483 530.6041912222353 681.7540401355898 530.4018719366321 681.5806236050728 530.2284554061151 C681.4072070745558 530.0550388755983 681.2048877889528 529.9683306103398 680.9736657482634 529.9683306103398 C680.7424437075741 529.9683306103398 680.540124421971 530.0550388755983 680.3667078914541 530.2284554061151 C680.1932913609371 530.4018719366321 680.1065830956786 530.6041912222353 680.1065830956786 530.8354132629246 C680.1065830956786 531.0666353036138 680.1932913609371 531.2689545892171 680.3667078914541 531.4423711197339 C680.540124421971 531.6157876502509 680.7424437075741 531.7024959155094 680.9736657482634 531.7024959155094 Z M660.1636820862267 512.6266775586425 L660.1636820862267 540.373322441358 L660.1636820862267 512.6266775586425 L660.1636820862267 521.2975040844912 L660.1636820862267 512.6266775586425 Z M663.6320126965662 529.9683306103398 L670.005070193065 529.9683306103398 C670.3230004990127 529.303567243358 670.6915106263613 528.6821580090054 671.1106005751105 528.1041029072823 C671.5296905238599 527.5260478055591 671.9993602940101 526.991346836465 672.5196098855611 526.5000000000002 L663.6320126965662 526.5000000000002 L663.6320126965662 529.9683306103398 Z M663.6320126965662 536.9049918310186 L668.964571009963 536.9049918310186 C668.8778627447045 536.3269367292953 668.8345086120753 535.7488816275721 668.8345086120753 535.1708265258488 C668.8345086120753 534.5927714241257 668.8778627447045 534.0147163224024 668.964571009963 533.4366612206792 L663.6320126965662 533.4366612206792 L663.6320126965662 536.9049918310186 Z M660.1636820862267 543.8416530516974 C659.2098911683834 543.8416530516974 658.3933883371993 543.502045679435 657.7141735926745 542.8228309349103 C657.0349588481497 542.1436161903855 656.6953514758873 541.3271133592013 656.6953514758873 540.373322441358 L656.6953514758873 512.6266775586425 C656.6953514758873 511.6728866407991 657.0349588481497 510.85638380961507 657.7141735926745 510.1771690650902 C658.3933883371993 509.49795432056544 659.2098911683834 509.158346948303 660.1636820862267 509.158346948303 L674.0370045275845 509.158346948303 L684.4419963586029 519.5633387793214 L684.4419963586029 523.5519189812118 C683.8928440119657 523.3785024506948 683.3292402877856 523.248440052807 682.7511851860625 523.1617317875485 C682.1731300843392 523.07502352229 681.5806236050728 523.0316693896608 680.9736657482634 523.0316693896608 L680.9736657482634 521.2975040844912 L672.3028392224148 521.2975040844912 L672.3028392224148 512.6266775586425 L660.1636820862267 512.6266775586425 L660.1636820862267 540.373322441358 L670.005070193065 540.373322441358 C670.3230004990127 541.0380858083398 670.6915106263613 541.6594950426922 671.1106005751105 542.2375501444155 C671.5296905238599 542.8156052461387 671.9993602940101 543.3503062152328 672.5196098855611 543.8416530516974 L660.1636820862267 543.8416530516974 Z M687.1082755153013 529.036216758811 C688.7990866878417 530.7270279313515 689.644492274112 532.7718978536974 689.644492274112 535.1708265258488 C689.644492274112 537.5697551980003 688.7990866878417 539.6146251203462 687.1082755153013 541.3054362928867 C685.4174643427609 542.9962474654272 683.3725944204149 543.8416530516974 680.9736657482634 543.8416530516974 C678.574737076112 543.8416530516974 676.529867153766 542.9962474654272 674.8390559812256 541.3054362928867 C673.148244808685 539.6146251203462 672.3028392224148 537.5697551980003 672.3028392224148 535.1708265258488 C672.3028392224148 532.7718978536974 673.148244808685 530.7270279313515 674.8390559812256 529.036216758811 C676.529867153766 527.3454055862705 678.574737076112 526.5000000000002 680.9736657482634 526.5000000000002 C683.3725944204149 526.5000000000002 685.4174643427609 527.3454055862705 687.1082755153013 529.036216758811 Z "></path>
    </defs>
    <g style="mix-blend-mode:normal">
      <use xmlns:xlink="http://www.w3.org/1999/xlink" xlink:href="#s-Path_50-f51a5" fill="#CCB92E" fill-opacity="1.0"></use>
    </g>
  </g>
</svg>
