<?xml version="1.0" encoding="UTF-8"?>
<svg xmlns="http://www.w3.org/2000/svg" width="29.474571228027344" height="21.43603515625" viewBox="887.1648946346909 457.773842089875 29.474571228027344 21.43603515625" preserveAspectRatio="none">
  <g>
    <defs>
      <path id="s-Path_59-998f1" d="M904.5816862341659 469.83162088951156 C903.4652252341996 469.83162088951156 902.5162333842281 469.4408595395232 901.7347106842517 468.65933683954677 C900.9531879842752 467.87781413957043 900.562426634287 466.928822289599 900.562426634287 465.8123612896326 C900.562426634287 464.69590028966627 900.9531879842752 463.74690843969483 901.7347106842517 462.9653857397184 C902.5162333842281 462.18386303974194 903.4652252341996 461.7931016897538 904.5816862341659 461.7931016897538 C905.6981472341323 461.7931016897538 906.6471390841036 462.18386303974194 907.4286617840801 462.9653857397184 C908.2101844840565 463.74690843969483 908.6009458340448 464.69590028966627 908.6009458340448 465.8123612896326 C908.6009458340448 466.928822289599 908.2101844840565 467.87781413957043 907.4286617840801 468.65933683954677 C906.6471390841036 469.4408595395232 905.6981472341323 469.83162088951156 904.5816862341659 469.83162088951156 Z M895.2034138344486 473.8508804893904 C894.4665495744708 473.8508804893904 893.8357491094898 473.58851215439825 893.3110124395056 473.063775484414 C892.7862757695215 472.53903881443 892.5239074345294 471.908238349449 892.5239074345294 471.1713740894711 L892.5239074345294 460.45334848979405 C892.5239074345294 459.7164842298164 892.7862757695215 459.0856837648354 893.3110124395056 458.56094709485114 C893.8357491094898 458.0362104248669 894.4665495744708 457.77384208987485 895.2034138344486 457.77384208987485 L913.9599586338833 457.77384208987485 C914.696822893861 457.77384208987485 915.327623358842 458.0362104248669 915.8523600288262 458.56094709485114 C916.3770966988104 459.0856837648354 916.6394650338025 459.7164842298164 916.6394650338025 460.45334848979405 L916.6394650338025 471.1713740894711 C916.6394650338025 471.908238349449 916.3770966988104 472.53903881443 915.8523600288262 473.063775484414 C915.327623358842 473.58851215439825 914.696822893861 473.8508804893904 913.9599586338833 473.8508804893904 L895.2034138344486 473.8508804893904 Z M897.8829202343678 471.1713740894711 L911.2804522339641 471.1713740894711 C911.2804522339641 470.4345098294933 911.5428205689561 469.8037093645123 912.0675572389403 469.2789726945281 C912.5922939089245 468.75423602454396 913.2230943739055 468.4918676895518 913.9599586338833 468.4918676895518 L913.9599586338833 463.13285488971337 C913.2230943739055 463.13285488971337 912.5922939089245 462.8704865547212 912.0675572389403 462.3457498847371 C911.5428205689561 461.82101321475284 911.2804522339641 461.19021274977183 911.2804522339641 460.45334848979405 L897.8829202343678 460.45334848979405 C897.8829202343678 461.19021274977183 897.6205518993758 461.82101321475284 897.0958152293915 462.3457498847371 C896.5710785594074 462.8704865547212 895.9402780944264 463.13285488971337 895.2034138344486 463.13285488971337 L895.2034138344486 468.4918676895518 C895.9402780944264 468.4918676895518 896.5710785594074 468.75423602454396 897.0958152293915 469.2789726945281 C897.6205518993758 469.8037093645123 897.8829202343678 470.4345098294933 897.8829202343678 471.1713740894711 Z M912.6202054339236 479.20989328922894 L889.8444010346101 479.20989328922894 C889.1075367746323 479.20989328922894 888.4767363096513 478.94752495423677 887.9519996396672 478.42278828425253 C887.4272629696829 477.8980516142684 887.1648946346909 477.2672511492875 887.1648946346909 476.5303868893096 L887.1648946346909 461.7931016897538 L889.8444010346101 461.7931016897538 L889.8444010346101 476.5303868893096 L912.6202054339236 476.5303868893096 L912.6202054339236 479.20989328922894 Z M895.2034138344486 471.1713740894711 L895.2034138344486 460.45334848979405 L895.2034138344486 471.1713740894711 Z "></path>
    </defs>
    <g style="mix-blend-mode:normal">
      <use xmlns:xlink="http://www.w3.org/1999/xlink" xlink:href="#s-Path_59-998f1" fill="#CCB92E" fill-opacity="1.0"></use>
    </g>
  </g>
</svg>
