<?xml version="1.0" encoding="UTF-8"?>
<svg xmlns="http://www.w3.org/2000/svg" width="30.047935485839844" height="25.75537109375" viewBox="1079.350149600073 273.12231245130624 30.047935485839844 25.75537109375" preserveAspectRatio="none">
  <g>
    <defs>
      <path id="s-Path_12-cb4dd" d="M1095.0895454929212 293.1542708603855 L1102.2438163533068 293.1542708603855 L1102.2438163533068 281.7074374837687 L1095.0895454929212 281.7074374837687 L1095.0895454929212 293.1542708603855 Z M1085.0735662883815 293.1542708603855 L1092.227837148767 293.1542708603855 L1092.227837148767 281.7074374837687 L1085.0735662883815 281.7074374837687 L1085.0735662883815 293.1542708603855 Z M1103.6746705253838 281.7074374837687 L1103.6746705253838 278.8457291396145 L1100.8129621812295 278.8457291396145 L1100.8129621812295 275.9840207954603 L1103.6746705253838 275.9840207954603 L1103.6746705253838 273.12231245130613 L1106.536378869538 273.12231245130613 L1106.536378869538 275.9840207954603 L1109.3980872136922 275.9840207954603 L1109.3980872136922 278.8457291396145 L1106.536378869538 278.8457291396145 L1106.536378869538 281.7074374837687 L1103.6746705253838 281.7074374837687 Z M1082.2118579442274 296.0159792045396 L1082.2118579442274 278.8457291396145 L1082.2118579442274 296.0159792045396 Z M1107.9672330416151 284.56914582792285 L1107.9672330416151 296.0159792045396 C1107.9672330416151 296.80294899918204 1107.6870240995834 297.476642838535 1107.1266062155198 298.03706072259854 C1106.5661883314563 298.5974786066621 1105.8924944921032 298.87768754869376 1105.1055246974609 298.87768754869376 L1082.2118579442274 298.87768754869376 C1081.4248881495848 298.87768754869376 1080.751194310232 298.5974786066621 1080.1907764261684 298.03706072259854 C1079.630358542105 297.476642838535 1079.350149600073 296.80294899918204 1079.350149600073 296.0159792045396 L1079.350149600073 278.8457291396145 C1079.350149600073 278.05875934497203 1079.630358542105 277.3850655056191 1080.1907764261684 276.8246476215555 C1080.751194310232 276.2642297374921 1081.4248881495848 275.9840207954603 1082.2118579442274 275.9840207954603 L1097.9512538370755 275.9840207954603 L1097.9512538370755 278.8457291396145 L1082.2118579442274 278.8457291396145 L1082.2118579442274 296.0159792045396 L1105.1055246974609 296.0159792045396 L1105.1055246974609 284.56914582792285 L1107.9672330416151 284.56914582792285 Z "></path>
    </defs>
    <g style="mix-blend-mode:normal">
      <use xmlns:xlink="http://www.w3.org/1999/xlink" xlink:href="#s-Path_12-cb4dd" fill="#B7EC7E" fill-opacity="1.0"></use>
    </g>
  </g>
</svg>
