<?xml version="1.0" encoding="UTF-8"?>
<svg xmlns="http://www.w3.org/2000/svg" width="26.389724731445312" height="29.3218994140625" viewBox="951.4278315425286 273.2731059260217 26.389724731445312 29.3218994140625" preserveAspectRatio="none">
  <g>
    <defs>
      <path id="s-Path_33-998f1" d="M955.8261187024056 302.5950203252013 C954.6043722691063 302.5950203252013 953.5658878008021 302.16740907354654 952.7106652974927 301.3121865702374 C951.8554427941833 300.45696406692775 951.4278315425286 299.41847959862355 951.4278315425286 298.1967331653244 L951.4278315425286 293.79844600544754 L955.8261187024056 293.79844600544754 L955.8261187024056 273.2731059260218 L958.025262282344 275.47224950596024 L960.2244058622824 273.2731059260218 L962.423549442221 275.47224950596024 L964.6226930221594 273.2731059260218 L966.821836602098 275.47224950596024 L969.0209801820364 273.2731059260218 L971.2201237619748 275.47224950596024 L973.4192673419134 273.2731059260218 L975.6184109218518 275.47224950596024 L977.8175545017903 273.2731059260218 L977.8175545017903 298.1967331653244 C977.8175545017903 299.41847959862355 977.3899432501355 300.45696406692775 976.5347207468262 301.3121865702374 C975.6794982435167 302.16740907354654 974.6410137752125 302.5950203252013 973.4192673419134 302.5950203252013 L955.8261187024056 302.5950203252013 Z M973.4192673419134 299.6628288852835 C973.834661129235 299.6628288852835 974.1828588627253 299.52232804545395 974.463860542384 299.2413263657952 C974.7448622220429 298.96032468613623 974.8853630618723 298.61212695264624 974.8853630618723 298.1967331653244 L974.8853630618723 277.67139308589856 L958.7583101423235 277.67139308589856 L958.7583101423235 293.79844600544754 L971.9531716219543 293.79844600544754 L971.9531716219543 298.1967331653244 C971.9531716219543 298.61212695264624 972.0936724617837 298.96032468613623 972.3746741414425 299.2413263657952 C972.6556758211013 299.52232804545395 973.0038735545916 299.6628288852835 973.4192673419134 299.6628288852835 Z M960.2244058622824 283.5357759657345 L960.2244058622824 280.6035845258167 L969.0209801820364 280.6035845258167 L969.0209801820364 283.5357759657345 L960.2244058622824 283.5357759657345 Z M960.2244058622824 287.9340631256115 L960.2244058622824 285.0018716856936 L969.0209801820364 285.0018716856936 L969.0209801820364 287.9340631256115 L960.2244058622824 287.9340631256115 Z M971.9531716219543 283.5357759657345 C971.5377778346326 283.5357759657345 971.1895801011424 283.3952751259052 970.9085784214835 283.11427344624656 C970.6275767418248 282.8332717665876 970.4870759019954 282.48507403309736 970.4870759019954 282.06968024577554 C970.4870759019954 281.65428645845395 970.6275767418248 281.30608872496373 970.9085784214835 281.025087045305 C971.1895801011424 280.744085365646 971.5377778346326 280.6035845258167 971.9531716219543 280.6035845258167 C972.368565409276 280.6035845258167 972.7167631427664 280.744085365646 972.9977648224251 281.025087045305 C973.278766502084 281.30608872496373 973.4192673419134 281.65428645845395 973.4192673419134 282.06968024577554 C973.4192673419134 282.48507403309736 973.278766502084 282.8332717665876 972.9977648224251 283.11427344624656 C972.7167631427664 283.3952751259052 972.368565409276 283.5357759657345 971.9531716219543 283.5357759657345 Z M971.9531716219543 287.9340631256115 C971.5377778346326 287.9340631256115 971.1895801011424 287.7935622857822 970.9085784214835 287.5125606061233 C970.6275767418248 287.2315589264647 970.4870759019954 286.8833611929741 970.4870759019954 286.46796740565264 C970.4870759019954 286.05257361833094 970.6275767418248 285.7043758848407 970.9085784214835 285.42337420518186 C971.1895801011424 285.1423725255229 971.5377778346326 285.0018716856936 971.9531716219543 285.0018716856936 C972.368565409276 285.0018716856936 972.7167631427664 285.1423725255229 972.9977648224251 285.42337420518186 C973.278766502084 285.7043758848407 973.4192673419134 286.05257361833094 973.4192673419134 286.46796740565264 C973.4192673419134 286.8833611929741 973.278766502084 287.2315589264647 972.9977648224251 287.5125606061233 C972.7167631427664 287.7935622857822 972.368565409276 287.9340631256115 971.9531716219543 287.9340631256115 Z M955.8261187024056 299.6628288852835 L969.0209801820364 299.6628288852835 L969.0209801820364 296.73063744536535 L954.3600229824465 296.73063744536535 L954.3600229824465 298.1967331653244 C954.3600229824465 298.61212695264624 954.5005238222759 298.96032468613623 954.7815255019348 299.2413263657952 C955.0625271815935 299.52232804545395 955.4107249150838 299.6628288852835 955.8261187024056 299.6628288852835 Z M954.3600229824465 299.6628288852835 L954.3600229824465 296.73063744536535 L954.3600229824465 299.6628288852835 Z "></path>
    </defs>
    <g style="mix-blend-mode:normal">
      <use xmlns:xlink="http://www.w3.org/1999/xlink" xlink:href="#s-Path_33-998f1" fill="#E3E3E3" fill-opacity="1.0"></use>
    </g>
  </g>
</svg>
