<?xml version="1.0" encoding="UTF-8"?>
<svg xmlns="http://www.w3.org/2000/svg" width="118.36061096191406" height="86.0804443359375" viewBox="800.0034520008935 190.9999999999999 118.36061096191406 86.0804443359375" preserveAspectRatio="none">
  <g>
    <defs>
      <path id="s-Path_31-bcacd" d="M891.463927287464 244.80027958033543 L891.463927287464 228.66019570623484 L875.3238434133633 228.66019570623484 L875.3238434133633 217.9001397901677 L891.463927287464 217.9001397901677 L891.463927287464 201.76005591606702 L902.2239832035311 201.76005591606702 L902.2239832035311 217.9001397901677 L918.3640670776317 217.9001397901677 L918.3640670776317 228.66019570623484 L902.2239832035311 228.66019570623484 L902.2239832035311 244.80027958033543 L891.463927287464 244.80027958033543 Z M827.8450966837172 227.71869081357897 C823.6307414499242 223.50433557978602 821.5235638330278 218.43814258597104 821.5235638330278 212.52011183213415 C821.5235638330278 206.60208107829726 823.6307414499242 201.53588808448228 827.8450966837172 197.32153285068932 C832.0594519175102 193.10717761689637 837.125644911325 191.0 843.0436756651619 191.0 C848.9617064189988 191.0 854.0278994128138 193.10717761689637 858.2422546466067 197.32153285068932 C862.4566098803997 201.53588808448228 864.5637874972962 206.60208107829726 864.5637874972962 212.52011183213415 C864.5637874972962 218.43814258597104 862.4566098803997 223.50433557978602 858.2422546466067 227.71869081357897 C854.0278994128138 231.93304604737193 848.9617064189988 234.0402236642684 843.0436756651619 234.0402236642684 C837.125644911325 234.0402236642684 832.0594519175102 231.93304604737193 827.8450966837172 227.71869081357897 Z M800.0034520008935 277.0804473285367 L800.0034520008935 262.01636904604277 C800.0034520008935 258.96768653649053 800.7880394114401 256.1655886416813 802.3572142325332 253.61007536161537 C803.9263890536263 251.05456208154942 806.0111498873644 249.10430194676235 808.6114967337472 247.75929495725393 C814.1708589570485 244.97961384560324 819.8198883129837 242.89485301186528 825.5585848015529 241.50501245603994 C831.297281290122 240.1151719002146 837.125644911325 239.42025162230186 843.0436756651619 239.42025162230186 C848.9617064189988 239.42025162230186 854.7900700402018 240.1151719002146 860.528766528771 241.50501245603994 C866.2674630173401 242.89485301186528 871.9164923732753 244.97961384560324 877.4758545965767 247.75929495725393 C880.0762014429596 249.10430194676235 882.1609622766975 251.05456208154942 883.7301370977907 253.61007536161537 C885.2993119188839 256.1655886416813 886.0838993294304 258.96768653649053 886.0838993294304 262.01636904604277 L886.0838993294304 277.0804473285367 L800.0034520008935 277.0804473285367 Z M810.7635079169606 266.3203914124697 L875.3238434133633 266.3203914124697 L875.3238434133633 262.01636904604277 C875.3238434133633 261.03003058707 875.07725879862 260.133359260731 874.5840895691337 259.32635506702604 C874.0909203396473 258.51935087332106 873.4408336280516 257.8916809448838 872.6338294343465 257.4433452817143 C867.7918042721163 255.02233270059924 862.9049455435692 253.20657326476282 857.9732532487051 251.9960669742053 C853.041560953841 250.78556068364776 848.06503509266 250.180307538369 843.0436756651619 250.180307538369 C838.022316237664 250.180307538369 833.045790376483 250.78556068364776 828.1140980816189 251.9960669742053 C823.1824057867548 253.20657326476282 818.2955470582076 255.02233270059924 813.4535218959774 257.4433452817143 C812.6465177022724 257.8916809448838 811.9964309906767 258.51935087332106 811.5032617611903 259.32635506702604 C811.0100925317038 260.133359260731 810.7635079169606 261.03003058707 810.7635079169606 262.01636904604277 L810.7635079169606 266.3203914124697 Z M850.6429651558843 220.11940132285656 C852.7501427727808 218.01222370596008 853.803731581229 215.47912720905265 853.803731581229 212.52011183213415 C853.803731581229 209.56109645521576 852.7501427727808 207.02799995830821 850.6429651558843 204.92082234141174 C848.5357875389878 202.81364472451526 846.0026910420804 201.76005591606702 843.0436756651619 201.76005591606702 C840.0846602882435 201.76005591606702 837.5515637913361 202.81364472451526 835.4443861744396 204.92082234141174 C833.3372085575431 207.02799995830821 832.2836197490949 209.56109645521576 832.2836197490949 212.52011183213415 C832.2836197490949 215.47912720905265 833.3372085575431 218.01222370596008 835.4443861744396 220.11940132285656 C837.5515637913361 222.22657893975304 840.0846602882435 223.28016774820128 843.0436756651619 223.28016774820128 C846.0026910420804 223.28016774820128 848.5357875389878 222.22657893975304 850.6429651558843 220.11940132285656 Z M843.0436756651619 212.52011183213415 Z M843.0436756651619 266.3203914124697 Z "></path>
    </defs>
    <g style="mix-blend-mode:normal">
      <use xmlns:xlink="http://www.w3.org/1999/xlink" xlink:href="#s-Path_31-bcacd" fill="#CCB92E" fill-opacity="1.0"></use>
    </g>
  </g>
</svg>
