<?xml version="1.0" encoding="UTF-8"?>
<svg xmlns="http://www.w3.org/2000/svg" width="28.750869750976562" height="33.54266357421875" viewBox="1079.3501496000738 269.05233739837297 28.750869750976562 33.54266357421875" preserveAspectRatio="none">
  <g>
    <defs>
      <path id="s-Path_56-998f1" d="M1088.9337732934532 272.2468786294993 L1088.9337732934532 269.05233739837297 L1098.5173969868329 269.05233739837297 L1098.5173969868329 272.2468786294993 L1088.9337732934532 272.2468786294993 Z M1088.1551038683663 301.45696501161217 C1086.4114167797097 300.6982614692196 1084.887354400693 299.666690863335 1083.5829167313163 298.3622531939585 C1082.2784790619398 297.05781552458177 1081.246908456055 295.53375314556513 1080.4882049136627 293.7900660569086 C1079.72950137127 292.04637896825204 1079.3501496000738 290.18955187765994 1079.3501496000738 288.2195847851318 C1079.3501496000738 286.2496176926039 1079.72950137127 284.39279060201136 1080.4882049136627 282.64910351335504 C1081.246908456055 280.9054164246985 1082.2784790619398 279.38135404568186 1083.5829167313163 278.0769163763051 C1084.887354400693 276.7724787069284 1086.4114167797097 275.74090810104383 1088.1551038683663 274.98220455865146 C1089.8987909570228 274.22350101625887 1091.755618047615 273.84414924506257 1093.725585140143 273.84414924506257 C1095.3760981095584 273.84414924506257 1096.9600581366585 274.1103610143231 1098.4774652214437 274.6427845528443 C1099.9948723062287 275.17520809136533 1101.4191052717727 275.94722222222083 1102.7501641180754 276.9588269454108 L1104.9863429798638 274.7226480836224 L1107.2225218416525 276.9588269454108 L1104.9863429798638 279.19500580719944 C1105.997947703054 280.5260646535022 1106.7699618339095 281.9502976190462 1107.3023853724305 283.46770470383115 C1107.8348089109518 284.98511178861634 1108.1010206802123 286.5690718157165 1108.1010206802123 288.2195847851318 C1108.1010206802123 290.18955187765994 1107.721668909016 292.04637896825204 1106.9629653666234 293.7900660569086 C1106.2042618242308 295.53375314556513 1105.1726912183462 297.05781552458177 1103.8682535489697 298.3622531939585 C1102.563815879593 299.666690863335 1101.0397535005764 300.6982614692196 1099.2960664119198 301.45696501161217 C1097.5523793232633 302.21566855400476 1095.6955522326712 302.59502032520106 1093.725585140143 302.59502032520106 C1091.755618047615 302.59502032520106 1089.8987909570228 302.21566855400476 1088.1551038683663 301.45696501161217 Z M1101.632074687181 296.1260743321699 C1103.8150111951174 293.94313782423353 1104.9064794490857 291.307641308554 1104.9064794490857 288.2195847851318 C1104.9064794490857 285.1315282617094 1103.8150111951174 282.4960317460301 1101.632074687181 280.31309523809375 C1099.4491381792448 278.1301587301572 1096.8136416635652 277.0386904761891 1093.725585140143 277.0386904761891 C1090.6375286167208 277.0386904761891 1088.0020321010413 278.1301587301572 1085.819095593105 280.31309523809375 C1083.6361590851684 282.4960317460301 1082.5446908312003 285.1315282617094 1082.5446908312003 288.2195847851318 C1082.5446908312003 291.307641308554 1083.6361590851684 293.94313782423353 1085.819095593105 296.1260743321699 C1088.0020321010413 298.3090108401062 1090.6375286167208 299.4004790940745 1093.725585140143 299.4004790940745 C1096.8136416635652 299.4004790940745 1099.4491381792448 298.3090108401062 1101.632074687181 296.1260743321699 Z M1093.725585140143 288.2195847851318 Z M1090.5310439090165 294.6086672473849 L1100.114667602396 288.2195847851318 L1090.5310439090165 281.83050232287894 L1090.5310439090165 294.6086672473849 Z "></path>
    </defs>
    <g style="mix-blend-mode:normal">
      <use xmlns:xlink="http://www.w3.org/1999/xlink" xlink:href="#s-Path_56-998f1" fill="#B7EC7E" fill-opacity="1.0"></use>
    </g>
  </g>
</svg>
